<?xml version="1.0" encoding="UTF-8"?><svg id="Layer_1" xmlns="http://www.w3.org/2000/svg" viewBox="0 0 1858.38 693.12"><defs><style>.cls-1{fill:#fff;stroke-width:0px;}</style></defs><path class="cls-1" d="M414.02,358.54h-51.25l-66.37,164.82h41.11l14.38-37.43h73.38l15.3,37.43h43.33l-69.87-164.82ZM362.21,453.86c12.35-32.26,21.2-57.34,24.89-69.69h.18c3.87,12.72,11.43,31.9,26.73,69.69h-51.81Z"/><path class="cls-1" d="M664.02,523.36h-28.95c-.92-3.69-2.03-10.88-2.58-16.96-10.51,12.35-24.52,20.46-55.68,20.46-53.47,0-83.15-36.69-83.15-84.99s31.71-86.84,90.71-86.84,75.77,28.76,80.2,52.73h-40.38c-3.32-8.3-12.72-22.49-39.82-22.49s-48.49,24.15-48.49,54.76,15.3,56.6,48.86,56.6,40.56-14.56,40.56-34.11v-2.58h-40.19v-30.79h78.91v94.58-.37Z"/><path class="cls-1" d="M847.64,492.02v-8.3c0-29.5-17.7-36.14-24.52-38.72,16.41-5.35,28.76-10.69,28.76-39.09s-21.76-47.2-59.73-47.2h-89.79v164.82h39.64v-63.24h33.19c24.15,0,30.24,7.01,30.24,23.6v5.35c0,17.51.37,27.29,3.13,34.48h41.11c-2.21-7.74-2.03-20.46-2.03-31.71ZM783.3,429.89h-41.3v-41.3h41.67c18.81,0,27.47,6.64,27.47,20.46s-8.48,20.83-27.84,20.83Z"/><path class="cls-1" d="M925.82,358.54v164.82h-40.01v-164.82h40.01Z"/><path class="cls-1" d="M1072.94,458.84v-92.37h-43.33l-72.27,91.63v31.16h80.01v34.11h35.58v-34.11h18.81l2.95-30.42h-21.76ZM1037.36,434.32v24.52h-42.59c22.86-29.5,36.5-48.67,43.14-58.44-.37,7.93-.55,25.07-.55,33.92Z"/><path class="cls-1" d="M1208.08,358.54h-85.36v164.82h40.19v-59.18h44.43c40.56,0,64.53-21.39,64.53-53.83s-25.44-51.81-63.79-51.81ZM1204.39,433.21h-41.3v-43.69h41.3c19.36,0,27.65,5.35,27.65,21.57s-10.69,22.12-27.65,22.12Z"/><path class="cls-1" d="M1382.86,355.04c-56.05,0-89.79,37.43-89.79,85.55s27.84,86.28,87.94,86.28,90.52-40.74,90.52-86.47-32.63-85.36-88.68-85.36ZM1383.23,495.71c-32.08,0-47.93-24.52-47.93-55.68l.18.18c0-27.84,12.91-53.83,46.28-53.83s47.57,27.84,47.57,54.57-14.01,54.76-46.09,54.76Z"/><path class="cls-1" d="M1504.35,358.54h40.01v132.74h92.37l-5.16,32.08h-127.03v-164.82h-.18Z"/><path class="cls-1" d="M385.31,192.91c-5.01,4.81-10.05,9.61-15.1,14.44-2.54-12.65-5.73-26.14-9.66-40.91.09-.09.2-.15.3-.18,10.31,1.31,20.39,4.13,32.74,9.16,2.38.92,4.65,1.97,6.78,3.13-5.05,4.78-10.05,9.57-15.06,14.36Z"/><path class="cls-1" d="M365.55,207.78l-13.42-.39c1.51-12.48,4.52-31.77,7.13-38.62,3.71,14.07,6.75,26.97,9.18,39.1l-2.8-.09h-.09Z"/><path class="cls-1" d="M419.29,196.56c3.04,5.68,4.66,12.08,4.89,19.52-8.37,2.51-16.72,5.09-25.04,7.65-2.42.74-4.81,1.47-7.23,2.23-.59.17-1.18.35-1.79.53-.07.02-.15.06-.22.07-5.13,1.57-10.27,3.15-15.43,4.7-.94-6.21-2.03-12.54-3.3-19.12v-.02s0-.04-.02-.07c-.17-.87-.33-1.73-.52-2.62,5.36-5.05,10.66-10.12,15.95-15.21,5.16-4.9,10.29-9.85,15.47-14.77,7.63,4.44,13.62,10.32,17.24,17.09Z"/><path class="cls-1" d="M372.63,231.36l-21.57-1.38c-.11-4.19-.07-8.41.09-12.63.06-1.59.33-4.48.76-8.11l16.11.46h.09l.72.04c.04.22.09.42.13.63,0,.04,0,.06.02.07,1.42,7.21,2.64,14.16,3.65,20.93Z"/><path class="cls-1" d="M353.36,254.37v-.02c-1.22-7.41-1.97-14.93-2.25-22.51l21.79,1.4c.41,2.69.77,5.35,1.11,7.98l.28,2.05c.76,5.7,1.53,11.58,2.19,17.53l-3.45-.94c-6.47-1.77-13.16-3.58-19.67-5.49Z"/><path class="cls-1" d="M374.34,315.25c-4.94-3.04-12.52-25.07-17.7-45.24-1.16-4.5-2.14-9.03-2.95-13.62,6.25,1.83,12.67,3.56,18.86,5.25l4.13,1.12c1.84,17.86,2.43,36.32-2.34,52.49Z"/><path class="cls-1" d="M410.44,269.75c-1.81,3.76-3.78,7.47-5.88,11.06-4.65,7.67-22.79,31.25-28.3,34.44,1.71-5.94,2.73-12.13,3.23-18.47v-.04c.07-1.07.15-2.12.2-3.19v-.02c.53-9.92-.07-20.13-1.09-30.18,1.86.37,3.72.74,5.6,1.12.3.06.61.11.9.18,3.24.65,6.49,1.29,9.73,1.95,5.22,1.07,10.42,2.12,15.6,3.13Z"/><path class="cls-1" d="M421.96,236.31c-2.27,10.67-5.9,21.44-10.71,31.73-5.33-1.05-10.69-2.14-16.04-3.23-3.26-.66-6.53-1.33-9.77-1.99-.31-.06-.63-.11-.94-.18-2.05-.41-4.09-.81-6.12-1.22-.66-6.25-1.48-12.41-2.27-18.38l-.26-2.05c-.33-2.6-.7-5.22-1.09-7.87,5.03-1.51,10.05-3.04,15.04-4.59.57-.17,1.16-.35,1.73-.53,2.71-.83,5.42-1.66,8.13-2.49,8.15-2.53,16.33-5.03,24.52-7.5-.02,5.51-.76,11.58-2.23,18.31Z"/><path class="cls-1" d="M352.59,255.26l-.22.74c.11.04.24.07.35.09-.04-.28-.09-.55-.13-.83Z"/><path class="cls-1" d="M385.11,264.66l-5.62,32.08c.07-1.07.15-2.12.2-3.19v-.02c1.49-9.68,3.01-19.36,4.52-29.06.3.06.61.11.9.18Z"/><path class="cls-1" d="M368.96,210.37s0,.06.02.07c-.33-.24-.65-.48-.96-.74h.09l.85.66Z"/><path class="cls-1" d="M352.72,256.09c-.11-.02-.24-.06-.35-.09l.22-.74c.04.28.09.55.13.83Z"/><path class="cls-1" d="M420.66,336.53c.35,2.6.68,5.18,1.03,7.8-3.21-1.05-6.38-2.27-9.51-3.6l-.18-.07c-8.98-3.85-24.61-10.55-29.13-15.47,11.65-1.88,24.35-.13,36.6,2.49.42,2.99.83,5.92,1.2,8.85Z"/><path class="cls-1" d="M408.69,303.88c5.18-2.45,10.47-4.42,15.89-5.94l-.61,3.23c-1.53,8.08-3.1,16.43-4.78,24.58-12.5-2.65-25.48-4.37-37.46-2.23-.09-.2-.15-.41-.17-.59.17-2.71,20.72-16.1,27.12-19.04Z"/><path class="cls-1" d="M448.49,294.4c3.24,0,6.23.26,8.94.79-2.56,6.01-5.16,12.02-7.76,18.01-2.62,5.99-5.2,12-7.76,17.98-1.81-.48-3.65-.94-5.55-1.38l-1.73-.42c-4.42-1.09-8.98-2.23-13.62-3.24,1.68-8.17,3.26-16.54,4.77-24.63l.76-4-.2-.04c5.01-1.31,10.1-2.21,15.25-2.71,2.43-.24,4.74-.35,6.91-.35Z"/><path class="cls-1" d="M480.72,318c-4.22,3.5-7.63,6.36-11.04,9.22-3.32,2.78-6.64,5.57-10.75,8.94-4.85-1.59-9.86-3.08-15.21-4.5,2.53-5.92,5.07-11.8,7.63-17.72,2.65-6.1,5.31-12.24,7.93-18.34,3.83.96,7.15,2.53,10.05,4.68,4.98,3.74,9.04,9.88,11.63,17.51l-.24.21Z"/><path class="cls-1" d="M485.74,346.02c-8.26-3.26-16.24-6.34-24.74-9.16,3.69-3.06,6.78-5.64,9.86-8.24,3.32-2.77,6.62-5.55,10.71-8.9.18.59.35,1.2.52,1.83,2.36,9.05,3.54,16.87,3.65,24.48Z"/><path class="cls-1" d="M435.92,331.6c1.88.44,3.71.9,5.49,1.36-.15,2.62-.26,5.27-.39,7.93-.11,2.64-.22,5.29-.37,7.91-5.73-.83-11.41-2.12-17-3.85-.41-2.91-.79-5.77-1.16-8.65-.37-2.71-.7-5.44-1.09-8.19,4.35.96,8.63,2.03,12.78,3.04l1.73.44Z"/><path class="cls-1" d="M443.22,333.45c15.49,4.09,28.23,8.9,41.7,14.21-4.65,2.19-30.81,2.6-36.17,2.03-2.1-.15-4.19-.35-6.27-.63.15-2.67.26-5.38.39-8.09.11-2.51.22-5.03.35-7.52Z"/><path class="cls-1" d="M319.16,391.08c3.15-3.15,6.12-6.45,8.89-9.86-4.15,8.46-9.37,16.41-15.58,23.73-3.89,4.55-24.56,24.74-27.67,24.41l-.2-.2h-.18c-6.58-6.45-11.3-13.61-15.43-20.39-4.96-8.11-7.13-16.69-6.14-24.12.57-4.63,2.45-8.74,4.87-12.3.17,5.73,1.81,11.97,4.81,18.12,3.12,6.38,7.54,14.69,14.14,22.33l.28.31h.28c.22.13.52.24.9.26.04,0,.07.02.11.02,5.64-.02,29.78-21.15,30.94-22.31Z"/><path class="cls-1" d="M333.91,369.9s0,.02-.02.04c-.77,1.22-1.6,2.43-2.43,3.63-4,5.75-8.54,11.17-13.59,16.22-3.87,3.85-26.62,22.38-29.66,21.76l-.22-.28h-.2c-6.31-7.37-10.58-15.41-13.61-21.61-3.34-6.82-4.92-13.7-4.61-19.84.04-.55.07-1.09.13-1.62,2.43-2.86,5.22-5.44,8.08-7.82,9.03-7.37,19.17-13.27,30.05-17.15,4.79-1.66,30.05-9.77,33.55-5.53,3.04,3.67-4.17,23.67-7.47,32.19Z"/><path class="cls-1" d="M342.1,337.12c-.63-.76-1.75-1.2-3.24-1.36-2.27-.31-5.35-.06-8.7.52-9.29,1.55-20.69,5.42-22.64,6.1-10.75,3.82-20.94,9.64-30.33,17.31-2.27,1.88-4.83,4.17-7.25,6.84-.09.55-.18,1.11-.24,1.68-.06.53-.09,1.07-.13,1.62,2.8-3.52,6.03-6.43,8.79-8.72,9.2-7.52,19.23-13.24,29.76-17,11.73-4.06,30.16-8.7,32.54-5.81,2.25,2.71-2.86,19.69-8.81,34.29-.13.33-.26.65-.39.98.83-1.2,1.66-2.42,2.43-3.63.02-.02.02-.04.02-.04.92-1.4,1.79-2.82,2.62-4.26.02-.02.02-.04.02-.06,3.6-9.81,8.46-24.93,5.55-28.47Z"/><path class="cls-1" d="M338.3,320.58c-.35-.06-.72-.11-1.07-.17-11.26-1.59-25.72-4.63-30.6-6.27-14.86-4.83-29.57-12.37-42.5-21.79-13.7-10.05-21.61-20.37-24.17-31.54-2.34-9.97-.46-21.68,5.27-32.95.96-1.97,1.92-3.85,2.88-5.64.15-.28.3-.53.42-.79,12.19,6.49,34.94,23.75,37.72,26.12,13.46,11.61,25.07,25.44,34.48,40.56,2.58,4.17,12.41,20.34,17.57,32.47Z"/><path class="cls-1" d="M318.28,327.05c-4.96,1.31-9.88,3.02-14.68,5.11-3.67-.5-6.78-1-8.85-1.44-15.73-3.71-30.66-9.73-44.34-17.96-14.82-9.03-23.38-18.36-26.88-29.35-3.98-12.32-.9-24.91,2.38-33.31,4.63-11.91,9.7-21.44,15.91-30.03l.17-.22c.74-.17,2.34.41,4.5,1.51-.98,1.81-1.94,3.71-2.91,5.68-5.92,11.65-7.84,23.78-5.42,34.18,2.67,11.63,10.82,22.31,24.89,32.61,13.09,9.55,27.97,17.18,43.01,22.07,3.1,1.03,19.4,4.89,32.01,6.51.11.29.22.57.33.87-9.48,1.09-19.93,3.72-20.11,3.78Z"/><path class="cls-1" d="M341.01,333.83c-1.73,2.82-21.87,1.14-35.36-.53.53-.24,1.07-.46,1.62-.68,3.78-1.51,7.63-2.78,11.49-3.8,5.24-1.35,13.38-3.01,20.32-3.76.31-.06.61-.07.92-.11,1.44,4.11,1.99,7.36,1.01,8.89Z"/><path class="cls-1" d="M340.92,324.88c-.29.02-.61.04-.92.07-.31.04-.61.06-.92.11,1.44,4.07,1.95,7.02,1.14,8.3-1.33,2.08-19.34.88-32.95-.74-.55.22-1.09.44-1.62.68h-.02c-.53.22-1.07.44-1.59.68,7.58,1,18.07,2.16,26.11,2.29.52.02,1.01.02,1.49.02,2.89,0,5.4-.17,7.21-.53,1.49-.31,2.53-.77,2.93-1.42,1.09-1.71.59-5.14-.87-9.46ZM321.5,287.64c-9.66-15.56-21.33-29.28-34.66-40.78-1.75-1.51-25.06-19.4-37.89-26.2-.13.26-.28.52-.42.77-.13.26-.28.52-.42.79,10.95,5.99,32.21,21.5,37.54,26.03,13.18,11.38,24.72,24.94,34.29,40.34,6.91,11.19,13.48,23.03,17.29,31.82.35.06.72.11,1.07.17.35.04.7.07,1.03.13-4.54-11.03-13.09-25.42-17.83-33.08Z"/><path class="cls-1" d="M351.7,320.74c-.76,1.01-5.83.79-12.37-.04-.33-.06-.68-.09-1.03-.13-.35-.06-.72-.11-1.07-.17-11.26-1.59-25.72-4.63-30.6-6.27-14.86-4.83-29.57-12.37-42.5-21.79-13.7-10.05-21.61-20.37-24.17-31.54-2.34-9.97-.46-21.68,5.27-32.95.96-1.97,1.92-3.85,2.88-5.64.15-.28.3-.53.42-.79.15-.26.29-.52.42-.77,4.66-8.54,9.35-15.3,14.75-21.35l.18-.2c4.5-.52,35.44,26.38,40.87,32.13,12.61,13.18,22.92,27.67,30.62,43.09,12.61,25.24,18.88,43.01,16.32,46.42Z"/><path class="cls-1" d="M340,359.24c-1.07,2.14-2.21,4.26-3.45,6.34,0,.02,0,.04-.02.06-.83,1.44-1.7,2.86-2.62,4.26,0,0,0,.02-.02.04-.77,1.22-1.6,2.43-2.43,3.63-4,5.75-8.54,11.17-13.59,16.22-3.87,3.85-26.62,22.38-29.66,21.76l-.22-.28h-.2c-6.31-7.37-10.58-15.41-13.61-21.61-3.34-6.82-4.92-13.7-4.61-19.84.04-.55.07-1.09.13-1.62.06-.57.15-1.12.24-1.68.07-.44.17-.89.26-1.33,1.81-8.19,7.37-15.21,17.5-22.12,5.13-3.5,10.64-6.56,16.35-9.09.52-.24,1.05-.46,1.59-.68h.02c.53-.24,1.07-.46,1.62-.68,3.78-1.51,7.63-2.78,11.49-3.8,5.24-1.35,13.38-3.01,20.32-3.76.31-.06.61-.07.92-.11.31-.04.63-.06.92-.07,5.4-.52,9.73-.37,10.79,1.03,1.44,1.92-.88,11.69-11.71,33.33Z"/></svg>