<svg width="120" height="120" viewBox="0 0 120 120" xmlns="http://www.w3.org/2000/svg">
  <g transform="translate(10,10) scale(0.8)">
    <!-- Body -->
    <ellipse cx="60" cy="65" rx="30" ry="25" fill="#FFC632" stroke="#3D7F18" stroke-width="2"/>
    
    <!-- Stripes -->
    <path d="M42 55 Q60 45, 78 55" fill="none" stroke="#3D7F18" stroke-width="4"/>
    <path d="M40 65 Q60 55, 80 65" fill="none" stroke="#3D7F18" stroke-width="4"/>
    <path d="M42 75 Q60 65, 78 75" fill="none" stroke="#3D7F18" stroke-width="4"/>
    
    <!-- Wings -->
    <ellipse cx="45" cy="40" rx="18" ry="14" fill="#FFFFFF" stroke="#3D7F18" stroke-width="1" opacity="0.6" transform="rotate(-15 45 40)"/>
    <ellipse cx="75" cy="40" rx="18" ry="14" fill="#FFFFFF" stroke="#3D7F18" stroke-width="1" opacity="0.6" transform="rotate(15 75 40)"/>
    
    <!-- Head -->
    <circle cx="60" cy="40" r="12" fill="#FFC632" stroke="#3D7F18" stroke-width="2"/>
    
    <!-- Eyes -->
    <circle cx="53" cy="38" r="4" fill="#3D7F18"/>
    <circle cx="67" cy="38" r="4" fill="#3D7F18"/>
    
    <!-- Antenna -->
    <path d="M55 32 Q50 22, 45 20" fill="none" stroke="#3D7F18" stroke-width="2"/>
    <path d="M65 32 Q70 22, 75 20" fill="none" stroke="#3D7F18" stroke-width="2"/>
    <circle cx="45" cy="20" r="2" fill="#3D7F18"/>
    <circle cx="75" cy="20" r="2" fill="#3D7F18"/>
    
    <!-- Stinger -->
    <path d="M60 90 L60 100" fill="none" stroke="#3D7F18" stroke-width="2"/>
  </g>
</svg> 