<svg xmlns="http://www.w3.org/2000/svg" width="26.129" height="23.097" viewBox="0 0 26.129 23.097">
  <g id="Group_8" data-name="Group 8" transform="translate(-450.435 -571.117)">
    <path id="bluesky_icon_white" data-name="bluesky icon white" d="M10.163,11.131a30.775,30.775,0,0,1,7.4,9.289v6.472c0-.15-.06,0-.18.36-.629,1.828-3.026,8.93-8.54,3.236-2.907-3-1.558-5.963,3.716-6.892-3.026.509-6.412-.33-7.341-3.686-.27-.959-.719-6.892-.719-7.671C4.5,8.224,8.006,9.483,10.163,11.131Zm14.8,0a30.775,30.775,0,0,0-7.4,9.289v6.472c0-.15.06,0,.18.36.629,1.828,3.026,8.93,8.54,3.236,2.907-3,1.558-5.963-3.716-6.892,3.026.509,6.412-.33,7.341-3.686.27-.959.719-6.892.719-7.671,0-4.015-3.506-2.757-5.663-1.109h0Z" transform="translate(445.935 561.555)" fill="#ffffff"/>
  </g>
</svg> 