<?xml version="1.0" encoding="utf-8"?>
<!-- Generator: Adobe Illustrator 19.0.0, SVG Export Plug-In . SVG Version: 6.00 Build 0)  -->
<svg version="1.1" id="Layer_1" xmlns="http://www.w3.org/2000/svg" xmlns:xlink="http://www.w3.org/1999/xlink" x="0px" y="0px"
	 viewBox="-267.5 380.2 32.9 33.3" style="enable-background:new -267.5 380.2 32.9 33.3;" xml:space="preserve">
<style type="text/css">
	.st0{fill:#35393E;stroke:#35393E;stroke-width:0.7;}
</style>
<g id="material-symbols-light:download">
	<path id="Vector" class="st0" d="M-267.1,409.1L-267.1,409.1c0,1.1,0.4,2.1,1.1,2.8c0.8,0.8,1.7,1.1,2.8,1.1h24.2h0
		c1.1,0,2.1-0.4,2.8-1.1c0.8-0.8,1.1-1.7,1.1-2.8v-4.9c0-0.5-0.4-1-0.9-1h-1.1c-0.5,0-0.9,0.4-0.9,1v4.9v0c0,0.2-0.1,0.5-0.3,0.7
		c-0.2,0.2-0.5,0.3-0.7,0.3h-24.2h0c-0.2,0-0.5-0.1-0.7-0.3c-0.2-0.2-0.3-0.5-0.3-0.7v-4.9c0-0.5-0.4-1-0.9-1h-1.1
		c-0.5,0-0.9,0.4-0.9,1V409.1z M-251.7,404.9c0.4,0.4,1,0.4,1.3,0l7.1-7.1c0.4-0.4,0.4-1,0-1.3l-0.8-0.8c-0.4-0.4-1-0.4-1.3,0
		l-3.8,3.8c-0.2,0.2-0.4,0-0.4-0.2v-17.4c0-0.5-0.4-0.9-0.9-0.9h-1.1c-0.5,0-0.9,0.4-0.9,0.9v17.4c0,0.2-0.3,0.3-0.4,0.2l-3.8-3.8
		c-0.4-0.4-1-0.4-1.3,0l-0.8,0.8c-0.4,0.4-0.4,1,0,1.3L-251.7,404.9z"/>
</g>
</svg>
