<svg xmlns="http://www.w3.org/2000/svg" width="20.944" height="20.02" viewBox="0 0 20.944 20.02">
  <g id="Group_9" data-name="Group_9" transform="translate(-366.056 -572.655)">
    <g id="linkedin" transform="translate(366.056 572.655)">
      <path id="Path_289" data-name="Path 289" d="M4.754,20.02V6.512H.265V20.02ZM2.51,4.667A2.341,2.341,0,1,0,2.54,0a2.34,2.34,0,1,0-.059,4.667H2.51ZM7.239,20.02h4.49V12.477a3.077,3.077,0,0,1,.148-1.1,2.458,2.458,0,0,1,2.3-1.642c1.625,0,2.275,1.239,2.275,3.054V20.02h4.489V12.275c0-4.149-2.215-6.079-5.169-6.079A4.472,4.472,0,0,0,11.7,8.471h.03V6.512H7.239c.059,1.267,0,13.508,0,13.508Z" transform="translate(0)" fill="#ffffff"/>
    </g>
  </g>
</svg> 