<svg xmlns="http://www.w3.org/2000/svg" width="11.483" height="13.123" viewBox="0 0 11.483 13.123">
  <path id="Icon_awesome-bell" data-name="Icon awesome-bell" d="M5.741,13.123a1.64,1.64,0,0,0,1.64-1.64H4.1A1.64,1.64,0,0,0,5.741,13.123Zm5.521-3.837c-.5-.532-1.422-1.333-1.422-3.955A4.048,4.048,0,0,0,6.561,1.354V.82a.82.82,0,1,0-1.639,0v.534A4.048,4.048,0,0,0,1.642,5.331c0,2.622-.927,3.423-1.422,3.955A.8.8,0,0,0,0,9.843a.821.821,0,0,0,.823.82H10.66a.821.821,0,0,0,.823-.82.8.8,0,0,0-.221-.556Z" transform="translate(0)" fill="#222c2d"/>
</svg>
